<svg width="32" height="35" viewBox="0 0 32 35" fill="none" xmlns="http://www.w3.org/2000/svg">
<path d="M15.7041 17.0518C20.4129 17.0518 24.2253 13.2394 24.2253 8.5306C24.2253 3.82178 20.4129 0 15.7041 0C10.9953 0 7.17349 3.81235 7.17349 8.52116C7.18293 13.23 10.9953 17.0423 15.7041 17.0518ZM15.7041 2.6894C18.9219 2.6894 21.5359 5.30332 21.5359 8.52116C21.5359 11.739 18.9219 14.3529 15.7041 14.3529C12.4862 14.3529 9.87233 11.739 9.87233 8.52116C9.87233 5.30332 12.4862 2.69884 15.7041 2.6894ZM30.8969 27.045L30.661 26.5166C29.0473 22.4966 25.1878 19.8261 20.8564 19.7317H10.5518C6.22041 19.8261 2.36087 22.4966 0.747232 26.5166L0.501882 27.0828C-0.300221 28.904 -0.130363 31.0084 0.935962 32.6881C1.82299 34.113 3.37058 34.9906 5.05028 35H26.3296C28.0093 34.9906 29.5758 34.113 30.4534 32.6786C31.5291 30.9895 31.699 28.8757 30.8969 27.045ZM28.2075 31.2065C27.8111 31.8671 27.1034 32.2823 26.3296 32.3012H5.05972C4.29536 32.2823 3.59706 31.8671 3.20072 31.216C2.61566 30.3006 2.53073 29.1588 2.96481 28.168L3.21016 27.6112C4.39916 24.5727 7.28673 22.5344 10.5423 22.44H20.8564C24.1215 22.5438 27.009 24.5727 28.1886 27.6207L28.4245 28.1491C28.8775 29.1305 28.7831 30.2817 28.2075 31.2065Z" fill="#6E0A82"/>
</svg>
