<svg width="46" height="46" viewBox="0 0 46 46" fill="none" xmlns="http://www.w3.org/2000/svg">
<circle cx="23" cy="23" r="22" fill="#C3A0CD" stroke="white" stroke-width="2"/>
<path d="M12 20.9447V19.6775C12 18.9735 12.572 18.4015 13.276 18.4015H22.9912C23.1672 18.4015 23.308 18.2607 23.308 18.0847V15.9551C23.308 15.1015 24.3464 14.6791 24.9448 15.2863L30.1808 20.6015C30.7792 21.2087 30.348 22.2295 29.5032 22.2295H13.276C12.572 22.2207 12 21.6487 12 20.9447Z" fill="white"/>
<path d="M15.8192 26.7175C15.2208 26.1103 15.652 25.0895 16.4968 25.0895H32.724C33.428 25.0895 34 25.6615 34 26.3655V27.6415C34 28.3455 33.428 28.9175 32.724 28.9175H23.0088C22.8328 28.9175 22.692 29.0583 22.692 29.2343V31.3639C22.692 32.2175 21.6536 32.6399 21.0552 32.0327L15.8192 26.7175Z" fill="white"/>
</svg>
