<svg width="25" height="25" viewBox="0 0 25 25" fill="none" xmlns="http://www.w3.org/2000/svg">
<path d="M24.2642 2.92641H9.52337C9.12204 2.92641 8.78759 2.60032 8.78759 2.19062C8.78759 1.78928 9.11367 1.45484 9.52337 1.45484H24.2642C24.6655 1.45484 25 1.78092 25 2.19062C24.9916 2.60032 24.6655 2.92641 24.2642 2.92641Z" fill="#A56EB4"/>
<path d="M16.8897 5.86122H9.51507C9.11374 5.86122 8.77929 5.53513 8.77929 5.12543C8.77929 4.72409 9.10538 4.38964 9.51507 4.38964H16.8897C17.291 4.38964 17.6254 4.71573 17.6254 5.12543C17.6254 5.52677 17.2994 5.86122 16.8897 5.86122Z" fill="#C3A0CD"/>
<path d="M16.8897 14.6906H9.51507C9.11374 14.6906 8.77929 14.3645 8.77929 13.9548C8.77929 13.5451 9.10538 13.2191 9.51507 13.2191H16.8897C17.291 13.2191 17.6254 13.5451 17.6254 13.9548C17.6254 14.3645 17.2994 14.6906 16.8897 14.6906Z" fill="#C3A0CD"/>
<path d="M16.8897 23.4782H9.51507C9.11374 23.4782 8.77929 23.1522 8.77929 22.7425C8.77929 22.3411 9.10538 22.0067 9.51507 22.0067H16.8897C17.291 22.0067 17.6254 22.3328 17.6254 22.7425C17.6254 23.1522 17.2994 23.4782 16.8897 23.4782Z" fill="#C3A0CD"/>
<path d="M24.2642 11.7642H9.52337C9.12204 11.7642 8.78759 11.4381 8.78759 11.0284C8.78759 10.6271 9.11367 10.2926 9.52337 10.2926H24.2642C24.6655 10.2926 25 10.6187 25 11.0284C24.9916 11.4381 24.6655 11.7642 24.2642 11.7642Z" fill="#A56EB4"/>
<path d="M24.2642 20.5518H9.52337C9.12204 20.5518 8.78759 20.2257 8.78759 19.816C8.78759 19.4147 9.11367 19.0803 9.52337 19.0803H24.2642C24.6655 19.0803 25 19.4063 25 19.816C24.9916 20.2257 24.6655 20.5518 24.2642 20.5518Z" fill="#A56EB4"/>
<path d="M6.91472 1.53846L3.98829 0.0752508C3.8796 0.0250836 3.77926 0 3.66221 0C3.54515 0 3.44482 0.0250836 3.33612 0.0752508L0.409699 1.53846C0.158863 1.67224 0 1.91472 0 2.199V5.12542C0 5.40134 0.158863 5.65217 0.409699 5.78595L3.33612 7.24916C3.43645 7.29097 3.54515 7.32441 3.66221 7.32441C3.77926 7.32441 3.8796 7.29097 3.98829 7.24916L6.91472 5.78595C7.16555 5.65217 7.32441 5.40134 7.32441 5.12542V2.199C7.32441 1.91472 7.16555 1.67224 6.91472 1.53846ZM3.66221 4.84114C3.00167 4.84114 2.48328 4.32274 2.48328 3.66221C2.48328 3.00167 3.00167 2.48328 3.66221 2.48328C4.32274 2.48328 4.84114 3.00167 4.84114 3.66221C4.84114 4.32274 4.32274 4.84114 3.66221 4.84114Z" fill="#A56EB4"/>
<path d="M6.91472 10.3763L3.98829 8.91305C3.88796 8.87125 3.77926 8.8378 3.66221 8.8378C3.54515 8.8378 3.44482 8.86289 3.33612 8.91305L0.409699 10.3763C0.158863 10.5017 0 10.7525 0 11.0368V13.9632C0 14.2391 0.158863 14.49 0.409699 14.6238L3.33612 16.087C3.43645 16.1288 3.54515 16.1622 3.66221 16.1622C3.77926 16.1622 3.8796 16.1288 3.98829 16.087L6.91472 14.6238C7.16555 14.49 7.32441 14.2391 7.32441 13.9632V11.0368C7.32441 10.7525 7.16555 10.5017 6.91472 10.3763ZM3.66221 13.6789C3.00167 13.6789 2.48328 13.1605 2.48328 12.5C2.48328 11.8395 3.00167 11.3211 3.66221 11.3211C4.32274 11.3211 4.84114 11.8395 4.84114 12.5C4.84114 13.1605 4.32274 13.6789 3.66221 13.6789Z" fill="#C3A0CD"/>
<path d="M6.91472 19.1639L3.98829 17.7007C3.88796 17.6589 3.77926 17.6254 3.66221 17.6254C3.54515 17.6254 3.44482 17.6505 3.33612 17.7007L0.409699 19.1639C0.158863 19.2893 0 19.5401 0 19.8244V22.801C0 23.0769 0.158863 23.3278 0.409699 23.4615L3.33612 24.9247C3.43645 24.9666 3.54515 25 3.66221 25C3.77926 25 3.8796 24.9666 3.98829 24.9247L6.91472 23.4615C7.16555 23.3278 7.32441 23.0769 7.32441 22.801V19.8244C7.32441 19.5401 7.16555 19.2893 6.91472 19.1639ZM3.66221 22.4666C3.00167 22.4666 2.48328 21.9482 2.48328 21.2876C2.48328 20.6271 3.00167 20.1087 3.66221 20.1087C4.32274 20.1087 4.84114 20.6271 4.84114 21.2876C4.84114 21.9482 4.32274 22.4666 3.66221 22.4666Z" fill="#A56EB4"/>
</svg>
