<svg width="24" height="26" viewBox="0 0 24 26" fill="none" xmlns="http://www.w3.org/2000/svg">
<path d="M16.8868 10.9686V7.99738C16.8868 7.94736 16.8868 7.89734 16.8868 7.85732C16.8067 6.37673 15.4562 5.19626 13.8155 5.19626H3.08123C1.43057 5.19626 0.090036 6.37673 0 7.85732C0 7.90734 0 7.95736 0 7.99738V21.1927C0 22.4432 0.900361 23.5036 2.14086 23.8637V24.8541C2.14086 25.3243 2.56103 25.7045 3.07123 25.7045C3.58143 25.7045 4.0016 25.3243 4.0016 24.8541V23.9938H12.8652V24.8541C12.8652 25.3243 13.2853 25.7045 13.7955 25.7045C14.3057 25.7045 14.7259 25.3243 14.7259 24.8541V24.7441C13.3453 23.6336 12.3049 22.153 11.7447 20.4724C11.4546 20.3323 11.2545 20.0522 11.2545 19.7221V9.56801C11.2545 9.09782 11.6747 8.71767 12.1849 8.71767C12.7051 8.71767 13.1153 9.09782 13.1153 9.56801V12.2191L16.8868 10.9686ZM5.62225 19.7321C5.62225 20.2023 5.20208 20.5824 4.69188 20.5824C4.18167 20.5824 3.76151 20.2023 3.76151 19.7321V9.56801C3.76151 9.09782 4.18167 8.71767 4.69188 8.71767C5.21209 8.71767 5.62225 9.09782 5.62225 9.56801V19.7321ZM9.37375 19.7321C9.37375 20.2023 8.95358 20.5824 8.44338 20.5824C7.93318 20.5824 7.51301 20.2023 7.51301 19.7321V9.56801C7.51301 9.09782 7.93318 8.71767 8.44338 8.71767C8.96359 8.71767 9.37375 9.09782 9.37375 9.56801V19.7321Z" fill="#C3A0CD"/>
<path d="M7.27289 1.7749H9.62383V3.56561H10.7943V1.76489C10.7843 1.18466 10.2641 0.704468 9.62383 0.704468H7.26288C6.62263 0.704468 6.10242 1.18466 6.10242 1.76489V3.56561H7.27289V1.7749Z" fill="#C3A0CD"/>
<path d="M23.4394 13.7797L18.6475 12.1791C18.4874 12.129 18.3073 12.129 18.1473 12.1791L13.3553 13.7797C13.0352 13.8897 12.8151 14.1899 12.8151 14.53V17.4612C12.8151 20.8225 14.956 23.8037 18.1473 24.8641C18.2273 24.8941 18.3173 24.9042 18.3974 24.9042C18.4774 24.9042 18.5674 24.8941 18.6475 24.8641C21.8387 23.8037 23.9796 20.8225 23.9796 17.4612V14.53C23.9896 14.1899 23.7695 13.8897 23.4394 13.7797ZM20.6683 18.3315L17.8071 20.0722C17.6771 20.1522 17.537 20.1923 17.397 20.1923C17.1569 20.1923 16.9168 20.0822 16.7567 19.8721L15.9064 18.7217C15.6463 18.3715 15.7263 17.8713 16.0764 17.6112C16.4266 17.3511 16.9268 17.4212 17.1869 17.7813L17.607 18.3415L19.8479 16.971C20.2181 16.7409 20.7083 16.8609 20.9384 17.2411C21.1585 17.6212 21.0384 18.1114 20.6683 18.3315Z" fill="#A56EB4"/>
</svg>
