<svg width="25" height="25" viewBox="0 0 25 25" fill="none" xmlns="http://www.w3.org/2000/svg">
<path d="M9.3729 0C9.94146 0 10.418 0.468071 10.418 1.0448V14.5771C10.418 15.1454 9.94982 15.6219 9.3729 15.6219H1.04515C0.468227 15.6135 0 15.1454 0 14.5771V1.0448C0 0.468071 0.468227 0 1.04515 0H9.3729Z" fill="#A56EB4"/>
<path d="M9.3729 17.7031C9.94146 17.7031 10.418 18.1712 10.418 18.7479V23.9552C10.418 24.5236 9.94982 25 9.3729 25H1.04515C0.468227 24.9833 0 24.5152 0 23.9468V18.7396C0 18.1712 0.468227 17.6948 1.04515 17.6948H9.3729V17.7031Z" fill="#C3A0CD"/>
<path d="M23.9549 0C24.5234 0 25 0.468071 25 1.0448V10.4146C25 10.9829 24.5318 11.4594 23.9549 11.4594H13.5368C12.9682 11.4594 12.4917 10.9913 12.4917 10.4146V1.0448C12.4917 0.476429 12.9599 0 13.5368 0H23.9549Z" fill="#C3A0CD"/>
<path d="M23.9549 13.5323C24.5234 13.5323 25 14.0003 25 14.5771V23.9468C25 24.5152 24.5318 24.9916 23.9549 24.9916H13.5368C12.9682 24.9916 12.4917 24.5236 12.4917 23.9468V14.5771C12.4917 14.0087 12.9599 13.5323 13.5368 13.5323H23.9549Z" fill="#A56EB4"/>
</svg>
