<svg width="25" height="22" viewBox="0 0 25 22" fill="none" xmlns="http://www.w3.org/2000/svg">
<path d="M23.7705 5.83782C23.7705 7.31722 22.571 8.52674 21.0816 8.52674C19.6022 8.52674 18.3926 7.32722 18.3926 5.83782C18.3926 4.34841 19.5922 3.1489 21.0816 3.1489C22.571 3.1489 23.7705 4.35841 23.7705 5.83782Z" fill="#C3A0CD"/>
<path d="M21.6713 10.1861H20.5418C20.132 10.1861 19.7521 10.2561 19.3922 10.396C20.8317 11.8854 21.7213 13.9046 21.7213 16.1337V20.2421H23.5106C24.3303 20.2421 25 19.5823 25 18.7626V13.4848C24.99 11.6555 23.5006 10.1861 21.6713 10.1861Z" fill="#C3A0CD"/>
<path d="M6.58738 5.83782C6.58738 7.31722 5.38786 8.52674 3.89846 8.52674C2.41905 8.52674 1.20954 7.32722 1.20954 5.83782C1.20954 4.34841 2.40906 3.1489 3.89846 3.1489C5.38786 3.1489 6.58738 4.35841 6.58738 5.83782Z" fill="#C3A0CD"/>
<path d="M4.44822 10.1861H3.30867C1.4894 10.1861 0 11.6555 0 13.4748V18.8026C0 19.5923 0.639744 20.2321 1.43942 20.2321H3.27869V16.1237C3.27869 13.8946 4.16833 11.8754 5.60775 10.386C5.2379 10.2561 4.84806 10.1861 4.44822 10.1861Z" fill="#C3A0CD"/>
<path d="M16.7433 4.27845C16.7433 6.62751 14.844 8.52674 12.495 8.52674C10.1459 8.52674 8.24669 6.62751 8.24669 4.27845C8.24669 1.92939 10.1459 0.0301514 12.495 0.0301514C13.6245 0.0301514 14.7041 0.479971 15.4938 1.26965C16.2935 2.06933 16.7433 3.1489 16.7433 4.27845Z" fill="#A56EB4"/>
<path d="M19.0823 16.0937V20.0921C19.0823 21.0317 18.3126 21.8014 17.373 21.8014H7.61692C6.6773 21.8014 5.9076 21.0317 5.9076 20.0921V16.0937C5.9076 12.835 8.55654 10.1861 11.8152 10.1861H13.1847C16.4334 10.1861 19.0823 12.835 19.0823 16.0937Z" fill="#A56EB4"/>
</svg>
