<svg width="25" height="26" viewBox="0 0 25 26" fill="none" xmlns="http://www.w3.org/2000/svg">
<path d="M24.4899 13.6965H19.372C19.372 13.7265 19.372 13.7665 19.372 13.7965C19.372 15.026 19.0921 16.1955 18.5923 17.235L21.1013 20.4737C21.2812 20.7036 21.6111 20.7336 21.821 20.5437C23.6303 18.9943 24.8198 16.7452 24.9997 14.2263C25.0097 13.9464 24.7798 13.6965 24.4899 13.6965Z" fill="#C3A0CD"/>
<path d="M18.9522 11.2675H24.0001C24.28 11.2675 24.5099 11.0376 24.4999 10.7477C24.3 5.35995 20.0018 1.07173 14.684 0.801841C14.3941 0.791845 14.1642 1.01175 14.1642 1.30163V6.32955C16.4132 7.16921 18.1925 8.98845 18.9522 11.2675Z" fill="#A56EB4"/>
<path d="M16.1733 20.1638C14.8439 21.1534 13.2045 21.7432 11.4253 21.7432C7.0371 21.7432 3.47857 18.1747 3.47857 13.7965C3.47857 9.41828 7.0471 5.84975 11.4253 5.84975V2.99094C11.4253 2.70106 11.1854 2.48115 10.9055 2.49114C4.83801 2.76103 0.0100107 7.75896 1.4849e-05 13.8764C-0.00998101 20.1738 5.02793 25.2617 11.3253 25.3117H11.5053C13.8843 25.2917 16.0934 24.542 17.9126 23.2825C18.1525 23.1226 18.1925 22.7927 18.0226 22.5628L16.1733 20.1638Z" fill="#C3A0CD"/>
<path d="M11.4153 7.35913C7.85678 7.35913 4.96797 10.2479 4.96797 13.8065C4.96797 17.365 7.85678 20.2538 11.4153 20.2538C14.9738 20.2538 17.8626 17.365 17.8626 13.8065C17.8626 10.2479 14.9738 7.35913 11.4153 7.35913ZM15.0838 12.8868C15.0838 13.0968 14.9139 13.2667 14.7039 13.2667H11.0654V16.2554C11.0654 16.4454 11.1354 16.5953 11.2854 16.6953C11.4253 16.7952 11.5952 16.8452 11.7852 16.8452H12.115C12.4249 16.8452 12.6848 16.7652 12.9047 16.5953C13.1246 16.4354 13.2346 16.2255 13.2346 15.9856C13.2346 15.8256 13.1846 15.6857 13.0846 15.5757C12.9647 15.4458 12.7947 15.3858 12.6248 15.3858C12.3249 15.3858 12.075 15.1359 12.075 14.836V14.4062C12.075 14.0963 12.3249 13.8464 12.6348 13.8464H12.6548C13.3245 13.8464 13.9043 14.0564 14.3741 14.4662C14.8439 14.876 15.0838 15.3858 15.0838 15.9956C15.0838 16.6653 14.7939 17.235 14.2141 17.6949C13.6344 18.1547 12.9347 18.3846 12.135 18.3846H11.8051C11.1154 18.3846 10.5157 18.1647 10.0059 17.7148C9.5061 17.265 9.2462 16.7352 9.2462 16.1055V13.2667H8.38656C8.17665 13.2667 8.00672 13.0968 8.00672 12.8868V12.2471C8.00672 12.0372 8.17665 11.8673 8.38656 11.8673H9.22621V11.5974C9.22621 11.4274 9.16624 11.2775 9.03629 11.1476C8.90634 11.0276 8.75641 10.9576 8.57648 10.9576C8.25661 10.9576 7.99672 10.6977 7.99672 10.3779V9.99804C7.99672 9.67817 8.25661 9.41828 8.57648 9.41828C9.2562 9.41828 9.84595 9.65818 10.3258 10.148C10.8156 10.6378 11.0555 11.2075 11.0555 11.8673H14.6939C14.9039 11.8673 15.0738 12.0372 15.0738 12.2471V12.8868H15.0838Z" fill="#A56EB4"/>
</svg>
