<svg width="25" height="26" viewBox="0 0 25 26" fill="none" xmlns="http://www.w3.org/2000/svg">
<path d="M12.5 15.7215C14.1072 15.7215 15.41 14.4187 15.41 12.8115C15.41 11.2044 14.1072 9.90152 12.5 9.90152C10.8929 9.90152 9.59003 11.2044 9.59003 12.8115C9.59003 14.4187 10.8929 15.7215 12.5 15.7215Z" fill="#C3A0CD"/>
<path d="M12.5 20.2015C8.42999 20.2015 5.10999 16.8815 5.10999 12.8115C5.10999 8.74151 8.41998 5.42151 12.5 5.42151C16.58 5.42151 19.89 8.73151 19.89 12.8115C19.89 16.8915 16.57 20.2015 12.5 20.2015ZM12.5 7.09151C9.34999 7.09151 6.77999 9.66151 6.77999 12.8115C6.77999 15.9715 9.34999 18.5315 12.5 18.5315C15.66 18.5315 18.22 15.9615 18.22 12.8115C18.22 9.65151 15.65 7.09151 12.5 7.09151Z" fill="#C3A0CD"/>
<path d="M22.75 12.8115C22.75 12.5715 22.74 12.3315 22.72 12.0915L25 10.1415L24.89 9.70152C24.74 9.10152 24.54 8.50152 24.3 7.93152C24.06 7.36152 23.78 6.80152 23.46 6.26152L23.23 5.87152L20.25 6.10152C19.93 5.73152 19.59 5.39152 19.22 5.07152L19.45 2.08152L19.06 1.85152C18.53 1.53152 17.96 1.25152 17.39 1.01152C16.82 0.771523 16.22 0.581523 15.62 0.421523L15.18 0.311523L13.23 2.58152C12.98 2.56152 12.74 2.55152 12.49 2.55152C12.25 2.55152 12 2.56152 11.75 2.58152L9.82 0.311523L9.38 0.421523C8.78 0.571523 8.18 0.771523 7.61 1.01152C7.03 1.25152 6.47 1.53152 5.94 1.85152L5.55 2.08152L5.78 5.07152C5.41 5.39152 5.07 5.73152 4.75 6.10152L1.77 5.87152L1.54 6.26152C1.22 6.79152 0.94 7.36152 0.7 7.93152C0.46 8.50152 0.26 9.09152 0.11 9.70152L0 10.1415L2.28 12.0915C2.26 12.3315 2.25 12.5715 2.25 12.8115C2.25 13.0515 2.26 13.3015 2.28 13.5515L0.01 15.5015L0.12 15.9415C0.27 16.5415 0.47 17.1415 0.71 17.7115C0.95 18.2815 1.23 18.8415 1.55 19.3815L1.78 19.7715L4.77 19.5415C5.09 19.9115 5.43 20.2515 5.8 20.5715L5.57 23.5515L5.96 23.7815C6.49 24.1015 7.06 24.3815 7.63 24.6215C8.2 24.8615 8.8 25.0515 9.4 25.2115L9.83 25.3115L11.78 23.0315C12.02 23.0515 12.26 23.0615 12.5 23.0615C12.74 23.0615 12.98 23.0515 13.22 23.0315L15.17 25.3115L15.61 25.2015C16.21 25.0515 16.81 24.8515 17.38 24.6115C17.95 24.3715 18.51 24.0915 19.05 23.7715L19.44 23.5415L19.21 20.5615C19.58 20.2415 19.92 19.9015 20.24 19.5315L23.23 19.7615L23.46 19.3715C23.78 18.8415 24.06 18.2715 24.3 17.7015C24.54 17.1315 24.73 16.5315 24.89 15.9315L25 15.4915L22.73 13.5415C22.74 13.3015 22.75 13.0515 22.75 12.8115ZM12.5 21.5215C7.7 21.5215 3.8 17.6115 3.8 12.8115C3.8 8.01152 7.7 4.10152 12.5 4.10152C17.3 4.10152 21.2 8.01152 21.2 12.8115C21.2 17.6115 17.3 21.5215 12.5 21.5215Z" fill="#A56EB4"/>
</svg>
