<svg width="135" height="20" viewBox="0 0 135 20" fill="none" xmlns="http://www.w3.org/2000/svg">
<path d="M46.2676 0.674086L36.8785 4.28494C36.8785 4.28494 32.2829 6.15981 30.6292 4.7633L33.8224 3.51339C33.8224 3.51339 34.5845 3.32822 35.4686 3.44395C35.4686 3.44395 33.6319 3.03503 32.2829 2.45637C32.2829 2.45637 30.7968 1.63852 30.4844 0.566069C30.4844 0.566069 34.8512 1.80826 38.9438 1.58452C38.9438 1.58452 39.3706 1.58452 39.8659 1.33762L42.5638 0.280596C42.5638 0.288312 45.1321 -0.568109 46.2676 0.674086Z" fill="#FF7D95"/>
<path d="M13.8628 5.56571H8.95478V18.3966H4.88512V5.56571H0V2.10145H13.8628V5.56571Z" fill="#6E0A82"/>
<path d="M29.3183 4.33895C27.6417 2.70326 25.6221 1.88542 23.2443 1.88542C20.8665 1.88542 18.8393 2.70326 17.1627 4.33895C15.4784 5.97463 14.6401 7.94209 14.6401 10.2567C14.6401 10.9434 14.7163 11.6069 14.8687 12.2319C16.0119 11.8153 17.3608 11.3138 18.8241 10.7737C18.8089 10.6039 18.8012 10.4342 18.8012 10.2567C18.8012 8.99139 19.2356 7.91122 20.1044 7.02394C20.9732 6.12894 22.025 5.68145 23.2596 5.68145C24.4942 5.68145 25.5383 6.12894 26.4071 7.02394C26.6281 7.25541 26.8186 7.49459 26.9863 7.74148C28.3124 7.24769 29.6156 6.76161 30.8502 6.29868C30.4463 5.59657 29.9433 4.94847 29.3183 4.33895Z" fill="#6E0A82"/>
<path d="M44.8425 2.10145V10.7737C44.8425 12.2396 44.5605 13.2966 43.9966 13.937C43.4326 14.5851 42.579 14.9092 41.4359 14.9092C40.2927 14.9092 39.4468 14.5851 38.8904 13.937C38.3341 13.2889 38.0597 12.2319 38.0597 10.7737V4.53955L37.1147 4.90989C37.0461 4.94076 35.6667 5.49627 34.112 5.78175V11.8538C34.112 13.829 34.7522 15.4416 36.0325 16.7069C37.3129 17.9722 39.1114 18.6049 41.4435 18.6049C43.7755 18.6049 45.5817 17.9722 46.8697 16.7069C48.1577 15.4416 48.7978 13.8213 48.7978 11.8538V2.10145H44.8425Z" fill="#6E0A82"/>
<path d="M58.4309 14.6314C58.3699 14.6469 58.2556 14.6546 58.088 14.6546H55.6416V18.3966H51.6024V2.10145H59.0025C61.2736 2.10145 62.9274 2.6724 63.9715 3.82201C65.0155 4.97162 65.5338 6.42213 65.5338 8.18127C65.5338 10.9434 64.5049 12.826 62.4548 13.8444L66.0368 18.3966H61.1974L58.4309 14.6314ZM55.6492 11.3215H57.9355C59.0787 11.3215 59.9246 11.0514 60.4734 10.5113C61.0221 9.97126 61.2964 9.2923 61.2964 8.47445C61.2964 7.64118 61.0602 6.94679 60.5877 6.39127C60.1152 5.83575 59.3607 5.558 58.3242 5.558H55.6492V11.3215Z" fill="#6E0A82"/>
<path d="M84.7389 2.10145V18.3966H80.6769V10.9743L76.3176 16.7069L71.9583 10.9743V18.3966H67.9192V2.10145H69.8397L76.3252 10.6579L82.8108 2.10145H84.7389Z" fill="#FF7D95"/>
<path d="M98.4797 15.5264H91.9256L90.6681 18.3966H86.4232L94.2348 2.10145H96.1782L104.013 18.3966H99.7677L98.4797 15.5264ZM93.366 12.1547H97.0394L95.1874 8.08868L93.366 12.1547Z" fill="#FF7D95"/>
<path d="M112.525 14.6314C112.464 14.6469 112.35 14.6546 112.182 14.6546H109.736V18.3966H105.697V2.10145H113.097C115.368 2.10145 117.022 2.6724 118.066 3.82201C119.11 4.97162 119.628 6.42213 119.628 8.18127C119.628 10.9434 118.599 12.826 116.549 13.8444L120.131 18.3966H115.292L112.525 14.6314ZM109.736 11.3215H112.022C113.166 11.3215 114.012 11.0514 114.56 10.5113C115.109 9.97126 115.383 9.2923 115.383 8.47445C115.383 7.64118 115.147 6.94679 114.675 6.39127C114.202 5.83575 113.448 5.558 112.411 5.558H109.736V11.3215Z" fill="#FF7D95"/>
<path d="M130.084 5.56571V18.3966H126.022V5.56571H121.137V2.10145H135V5.56571H130.084Z" fill="#FF7D95"/>
<path d="M21.7655 19.5138C22.4312 18.9187 22.5982 18.009 22.1386 17.482C21.6789 16.9549 20.7666 17.0101 20.1008 17.6052C19.4351 18.2004 19.2681 19.11 19.7278 19.6371C20.1874 20.1641 21.0998 20.1089 21.7655 19.5138Z" fill="#FF7D95"/>
<path d="M27.6265 9.40031C27.6722 9.67807 27.7027 9.96354 27.7027 10.2567C27.7027 11.5221 27.2683 12.6022 26.3995 13.4972C25.5307 14.3922 24.4789 14.8397 23.252 14.8397C22.0173 14.8397 20.9656 14.3922 20.0968 13.4972C19.9825 13.3738 19.8758 13.2581 19.7767 13.1346C19.6319 12.9572 19.51 12.772 19.3957 12.5791L27.4664 8.75221L31.1779 6.98536L32.1763 6.507C32.1381 6.52243 31.7571 6.66131 31.1398 6.89278C30.271 7.21683 28.9068 7.72605 27.2988 8.32786C24.8067 9.26144 21.7277 10.4033 18.9308 11.4372C17.5209 11.9619 16.1872 12.4479 15.044 12.8723C15.2117 13.3815 15.4327 13.8599 15.6995 14.3305C15.8138 14.5234 15.9357 14.7086 16.0576 14.8937C16.3701 15.3412 16.7359 15.7656 17.1551 16.1668C17.7876 16.7763 18.4659 17.2778 19.1975 17.6559C19.6548 16.9461 20.4626 16.46 21.2781 16.46C21.8497 16.46 22.3603 16.6992 22.6804 17.1235C22.9928 17.5247 23.0995 18.0571 23.0005 18.6049C23.0767 18.6049 23.1529 18.6126 23.2291 18.6126C23.3129 18.6126 23.3891 18.6126 23.473 18.6049C23.4806 18.5355 23.4958 18.4737 23.5111 18.4043C23.7778 17.3164 24.8371 16.46 25.9193 16.46C26.4909 16.46 27.0015 16.6992 27.3216 17.1235C27.4131 17.2393 27.4817 17.3627 27.5426 17.5016C28.1676 17.1467 28.7544 16.6992 29.2955 16.1668C30.9721 14.5388 31.8104 12.5714 31.8104 10.2567C31.8104 9.31544 31.6733 8.42816 31.3913 7.59489L27.6265 9.40031Z" fill="#6E0A82"/>
<path d="M26.4148 19.5149C27.0805 18.9198 27.2475 18.0101 26.7878 17.4831C26.3282 16.956 25.4158 17.0112 24.7501 17.6063C24.0844 18.2014 23.9174 19.1111 24.3771 19.6382C24.8367 20.1652 25.7491 20.11 26.4148 19.5149Z" fill="#FF7D95"/>
</svg>
